<?xml version="1.0" encoding="utf-8"?>
<!-- Generator: Adobe Illustrator 16.0.0, SVG Export Plug-In . SVG Version: 6.00 Build 0)  -->
<!DOCTYPE svg PUBLIC "-//W3C//DTD SVG 1.1//EN" "http://www.w3.org/Graphics/SVG/1.1/DTD/svg11.dtd">
<svg version="1.1" id="Calque_1" xmlns="http://www.w3.org/2000/svg" xmlns:xlink="http://www.w3.org/1999/xlink" x="0px" y="0px"
	 width="552px" height="298.922px" viewBox="0 0 552 298.922" enable-background="new 0 0 552 298.922" xml:space="preserve">
<g id="franchise_ux" transform="translate(0 -77.246)">
	<path id="Tracé_10064" fill="#3F3D56" d="M82.867,305.598c-3.97,15.118-17.876,24.56-17.876,24.56s-7.473-15.06-3.5-30.173
		c3.972-15.114,17.876-24.56,17.876-24.56S86.835,290.484,82.867,305.598z"/>
	<path id="Tracé_10065" fill="#5A47AB" d="M76.847,302.401c-11.116,10.981-12.36,27.747-12.36,27.747s16.779-1.041,27.896-12.023
		s12.36-27.747,12.36-27.747S87.963,291.419,76.847,302.401z"/>
	<path id="Rectangle_2302" fill="#5A47AB" d="M51.596,325.732h34.901c7.139,0,12.926,5.787,12.926,12.926l0,0
		c0,7.139-5.787,12.926-12.926,12.926H51.596c-7.139,0-12.926-5.787-12.926-12.926l0,0C38.67,331.519,44.457,325.732,51.596,325.732
		z"/>
	<g id="Groupe_3236" transform="translate(462.268 299.903)" opacity="0.7">
		
			<linearGradient id="Tracé_10066_1_" gradientUnits="userSpaceOnUse" x1="-490.9074" y1="317.1086" x2="-490.9074" y2="318.1086" gradientTransform="matrix(58.6746 0 0 -52.167 28833.1465 16594.752)">
			<stop  offset="0" style="stop-color:#808080;stop-opacity:0.251"/>
			<stop  offset="0.535" style="stop-color:#808080;stop-opacity:0.122"/>
			<stop  offset="1" style="stop-color:#808080;stop-opacity:0.102"/>
		</linearGradient>
		<path id="Tracé_10066" fill="url(#Tracé_10066_1_)" d="M46.575,9.316V0h-46.58v43.084c0,5.017,4.066,9.083,9.083,9.083l0,0
			h28.417c5.017,0,9.083-4.066,9.083-9.083l0,0v-9.55c6.688-0.01,12.102-5.439,12.092-12.128
			c-0.011-6.674-5.418-12.081-12.092-12.091H46.575z M46.575,28.877v-14.9c4.114,0.095,7.373,3.508,7.277,7.622
			C53.761,25.579,50.555,28.784,46.575,28.877z"/>
	</g>
	<path id="Tracé_10067" fill="#5A47AB" d="M507.348,310.676c-6.106,0.003-11.055,4.955-11.052,11.063
		c0.002,6.106,4.955,11.055,11.062,11.052c6.105-0.003,11.053-4.953,11.052-11.058c0-6.107-4.95-11.057-11.057-11.057l0,0H507.348z
		 M507.348,328.537c-3.756,0-6.8-3.045-6.8-6.8c0-3.756,3.044-6.8,6.8-6.8c3.755,0,6.8,3.044,6.8,6.8l0,0
		C514.148,325.492,511.104,328.537,507.348,328.537z"/>
	<path id="Tracé_10069" fill="#5A47AB" d="M464.82,302.17h42.527v42.09c0,3.061-2.48,5.541-5.54,5.541H470.36
		c-3.06,0-5.54-2.48-5.54-5.541V302.17z"/>
	<rect id="Rectangle_2303" x="0" y="349.801" fill="#E0E0E0" width="552" height="18.711"/>
	<g id="Groupe_3237" transform="translate(198.377 77.245)" opacity="0.7">
		
			<linearGradient id="Tracé_10070_1_" gradientUnits="userSpaceOnUse" x1="-227.2405" y1="543.8096" x2="-227.2405" y2="544.8096" gradientTransform="matrix(155.824 0 0 -235.147 35487.5352 128110.2656)">
			<stop  offset="0" style="stop-color:#808080;stop-opacity:0.251"/>
			<stop  offset="0.535" style="stop-color:#808080;stop-opacity:0.122"/>
			<stop  offset="1" style="stop-color:#808080;stop-opacity:0.102"/>
		</linearGradient>
		<path id="Tracé_10070" fill="url(#Tracé_10070_1_)" d="M145.474,175c-4.61-16.731-30.744-28.951-50.407-31.66
			c0-0.123,0.01-0.246,0.01-0.37v-14.32l0.063-0.022v-0.543c14.142-5.26,25.081-16.727,29.669-31.1
			c1.216-2.197,2.273-4.478,3.166-6.825c2.1-0.764,3.685-4.226,3.685-8.385c0.008-1.421-0.191-2.836-0.592-4.2
			c0.258-2.119,0.39-4.25,0.395-6.384c0.016-15.086-6.372-29.471-17.576-39.574c0.164-0.856,0.22-1.73,0.166-2.6
			c-0.445-6.875-7.788-11.545-14.67-11.857c3.71-4.209,4.664-10.18,2.448-15.335c-4.388,6.393-13.399,7.073-21.15,7.123
			c3.197-1.434,4.626-5.188,3.192-8.385C83.784,0.371,83.689,0.183,83.584,0c-8.101,10.862-23.9,12.874-33.541,22.4
			c-2.1,2.083-3.859,4.484-5.215,7.113c-12.69,10.109-20.077,25.454-20.065,41.678c0.004,2.115,0.133,4.228,0.386,6.327
			c-0.413,1.382-0.619,2.819-0.61,4.262c0,4.178,1.6,7.651,3.714,8.394c0.896,2.355,1.959,4.644,3.18,6.848
			c4.573,14.286,15.424,25.699,29.461,30.986v14.966c0,0.115,0.006,0.229,0.009,0.344c-19.737,2.663-46.081,14.977-50.649,31.844
			c-3.945,14.565-8.157,30.562-10.253,39.954c17.962,12.621,55.649,20.031,79.27,20.031c22.442,0,59.122-6.689,76.554-18.182
			C153.936,206.646,149.591,189.947,145.474,175z"/>
	</g>
	<path id="Tracé_10071" fill="#D05270" d="M277.599,308.237c21.647,0,57.032-6.452,73.849-17.538
		c-1.822-9.955-6.012-26.064-9.983-40.48c-5.059-18.359-36.982-31.087-56.025-31.087h-18.352c-19.101,0-51.072,12.8-56.067,31.24
		c-3.806,14.051-7.869,29.482-9.89,38.542C218.457,301.088,254.814,308.237,277.599,308.237z"/>
	<ellipse id="Ellipse_1005" fill="#72351C" cx="276.481" cy="150.076" rx="51.463" ry="51.463"/>
	<path id="Tracé_10072" opacity="0.1" enable-background="new    " d="M259.871,192.94h32.975v26.38
		c0,9.105-7.382,16.488-16.488,16.488l0,0l0,0c-9.105,0-16.487-7.383-16.487-16.488l0,0L259.871,192.94L259.871,192.94z"/>
	<path id="Tracé_10073" fill="#FDA57D" d="M264.601,191.719h23.517c2.612,0,4.729,2.118,4.729,4.73l0,0v21.65
		c0,9.106-7.382,16.488-16.488,16.488l0,0l0,0c-9.105,0-16.487-7.382-16.487-16.488l0,0v-21.65
		C259.871,193.837,261.989,191.719,264.601,191.719L264.601,191.719z"/>
	<path id="Tracé_10074" opacity="0.1" enable-background="new    " d="M259.933,205.391c10.628,3.971,22.326,4.003,32.975,0.091
		v-4.051h-32.975V205.391z"/>
	<ellipse id="Ellipse_1006" fill="#FDA57D" cx="276.482" cy="160.336" rx="47.265" ry="47.265"/>
	<path id="Tracé_10075" opacity="0.1" enable-background="new    " d="M242.815,117.346c0,0,19.919,40.433,76.109,16.946
		l-13.081-20.516l-23.19-8.324L242.815,117.346z"/>
	<path id="Tracé_10076" fill="#72351C" d="M242.815,116.748c0,0,19.919,40.433,76.109,16.946l-13.081-20.514l-23.189-8.325
		L242.815,116.748z"/>
	<path id="Tracé_10077" fill="#72351C" d="M242.638,114.016c1.343-4.158,3.664-7.933,6.769-11.008
		c9.3-9.19,24.537-11.13,32.355-21.609c1.684,2.931,0.672,6.671-2.258,8.354c-0.176,0.101-0.357,0.193-0.542,0.276
		c7.479-0.049,16.17-0.7,20.399-6.871c2.137,4.973,1.217,10.732-2.362,14.793c6.639,0.3,13.722,4.807,14.15,11.438
		c0.286,4.418-2.483,8.6-6.115,11.135c-3.631,2.535-8.022,3.7-12.347,4.65C280.069,127.957,234.403,139.616,242.638,114.016z"/>
	<path id="Tracé_10078" fill="#72351C" d="M323.743,160.747h-1.253l-24.379,21.7c-23.486-11-40.729,0-40.729,0l-25.568-20.811
		l-2.578,0.324c0.282,26.1,21.668,47.03,47.769,46.749c26.1-0.281,47.029-21.668,46.748-47.768
		c-0.001-0.065-0.002-0.131-0.003-0.196L323.743,160.747z M276.409,190.777c-9.195,0-16.649-1.864-16.649-4.162
		s7.454-4.162,16.649-4.162c9.194,0,16.648,1.863,16.648,4.162S285.604,190.777,276.409,190.777z"/>
	<ellipse id="Ellipse_1007" fill="#FDA57D" cx="229.198" cy="160.29" rx="4.397" ry="8.244"/>
	<ellipse id="Ellipse_1008" fill="#FDA57D" cx="323.74" cy="160.29" rx="4.397" ry="8.244"/>
	<g id="Groupe_3238" transform="translate(184.545 244.473)" opacity="0.7">
		
			<linearGradient id="Rectangle_2304_1_" gradientUnits="userSpaceOnUse" x1="-213.43" y1="375.1606" x2="-213.43" y2="376.1606" gradientTransform="matrix(182.91 0 0 -105.327 39129.8828 39619.8906)">
			<stop  offset="0" style="stop-color:#808080;stop-opacity:0.251"/>
			<stop  offset="0.535" style="stop-color:#808080;stop-opacity:0.122"/>
			<stop  offset="1" style="stop-color:#808080;stop-opacity:0.102"/>
		</linearGradient>
		<path id="Rectangle_2304" fill="url(#Rectangle_2304_1_)" d="M14.5,0h153.909c8.009,0,14.5,6.492,14.5,14.5v76.328
			c0,8.008-6.491,14.5-14.5,14.5H14.5c-8.009,0-14.5-6.492-14.5-14.5V14.5C0,6.492,6.491,0,14.5,0z"/>
	</g>
	<path id="Rectangle_2305" fill="#535461" d="M214.694,246.417h122.613c14.82,0,26.835,12.015,26.835,26.835v49.715
		c0,14.82-12.015,26.834-26.835,26.834H214.694c-14.82,0-26.835-12.014-26.835-26.834v-49.715
		C187.859,258.432,199.873,246.417,214.694,246.417z"/>
	<ellipse id="Ellipse_1009" fill="#FFFFFF" cx="276" cy="298.108" rx="5.964" ry="5.964"/>
	<rect id="Rectangle_2306" x="23.39" y="368.514" fill="#E0E0E0" width="505.221" height="7.654"/>
	<rect id="Rectangle_2307" x="23.39" y="368.514" opacity="0.1" enable-background="new    " width="505.221" height="2.551"/>
	<path id="Tracé_10079" opacity="0.1" enable-background="new    " d="M499.692,302.17v39.338c0,4.58-3.713,8.293-8.293,8.293l0,0
		h4.253c4.58,0,8.293-3.713,8.293-8.293l0,0V302.17H499.692z"/>
	<path id="Tracé_10080" fill="#EEEEEE" d="M473.212,270.465c-0.736,0.023-1.425,0.373-1.878,0.953
		c-0.559,1.012,0.452,2.151,1.375,2.846c1.794,1.163,3.371,2.631,4.658,4.338c1.158,1.791,1.522,4.291,0.256,6.01
		c-1.653,2.242-5.6,2.725-5.979,5.484c-0.245,1.771,1.286,3.282,2.839,4.172c3.831,2.193,8.77,2.779,11.544,6.213
		c1.148-2.36,3.715-3.726,6.274-4.308c2.559-0.582,5.218-0.538,7.813-0.934c0.86-0.017,1.66-0.44,2.156-1.144
		c0.725-1.472-1.342-3.236-0.628-4.715c0.543-1.125,2.138-1.037,3.3-1.488c1.9-0.732,2.679-3.174,2.141-5.136
		c-0.685-1.931-1.966-3.594-3.657-4.75c-4.311-3.386-9.491-5.378-14.733-6.81c-2.438-0.666-5.3-1.711-7.831-1.813
		C478.418,269.287,475.631,270.051,473.212,270.465z"/>
</g>
</svg>
